<svg width="210" height="51" viewBox="0 0 210 51" fill="none" xmlns="http://www.w3.org/2000/svg">
<g clip-path="url(#clip0_6_91)">
<path d="M25.5 25.5V6.375" stroke="#FC4F00" stroke-width="4" stroke-linecap="round" stroke-linejoin="round"/>
<path d="M25.5 25.5L6.375 20.1875" stroke="#FC4F00" stroke-width="4" stroke-linecap="round" stroke-linejoin="round"/>
<path d="M25.5 25.5L44.625 20.1875" stroke="#FC4F00" stroke-width="4" stroke-linecap="round" stroke-linejoin="round"/>
<path d="M25.5 25.5L38.25 43.5625" stroke="#FC4F00" stroke-width="4" stroke-linecap="round" stroke-linejoin="round"/>
<path d="M25.5 25.5L12.75 43.5625" stroke="#FC4F00" stroke-width="4" stroke-linecap="round" stroke-linejoin="round"/>
</g>
<path d="M63.657 36H58.7138L66.2457 14.1818H72.1903L79.7116 36H74.7685L69.3033 19.1676H69.1328L63.657 36ZM63.348 27.424H75.0241V31.0249H63.348V27.424ZM92.7461 29.0327V19.6364H97.2844V36H92.9272V33.0277H92.7567C92.3874 33.9865 91.7731 34.7571 90.9137 35.3395C90.0614 35.9219 89.021 36.2131 87.7923 36.2131C86.6985 36.2131 85.7362 35.9645 84.9052 35.4673C84.0742 34.9702 83.4244 34.2635 82.9556 33.3473C82.494 32.4311 82.2596 31.3338 82.2525 30.0554V19.6364H86.7908V29.2457C86.7979 30.2116 87.0572 30.9751 87.5685 31.5362C88.0799 32.0973 88.7653 32.3778 89.6246 32.3778C90.1715 32.3778 90.6829 32.2536 91.1587 32.005C91.6346 31.7493 92.0181 31.3729 92.3093 30.8757C92.6076 30.3786 92.7532 29.7642 92.7461 29.0327ZM109.618 19.6364V23.0455H99.764V19.6364H109.618ZM102.001 15.7159H106.54V30.9716C106.54 31.3906 106.604 31.7173 106.731 31.9517C106.859 32.179 107.037 32.3388 107.264 32.4311C107.498 32.5234 107.768 32.5696 108.074 32.5696C108.287 32.5696 108.5 32.5518 108.713 32.5163C108.926 32.4737 109.089 32.4418 109.203 32.4205L109.917 35.7976C109.689 35.8686 109.37 35.9503 108.958 36.0426C108.546 36.142 108.045 36.2024 107.456 36.2237C106.362 36.2663 105.403 36.1207 104.579 35.7869C103.763 35.4531 103.127 34.9347 102.672 34.2315C102.218 33.5284 101.994 32.6406 102.001 31.5682V15.7159ZM117.465 26.5398V36H112.926V14.1818H117.337V22.5234H117.529C117.898 21.5575 118.494 20.8011 119.318 20.2543C120.142 19.7003 121.176 19.4233 122.419 19.4233C123.555 19.4233 124.546 19.6719 125.391 20.169C126.243 20.6591 126.904 21.3658 127.372 22.2891C127.848 23.2053 128.083 24.3026 128.075 25.581V36H123.537V26.3906C123.544 25.3821 123.289 24.5973 122.77 24.0362C122.259 23.4751 121.541 23.1946 120.618 23.1946C120 23.1946 119.453 23.326 118.977 23.5888C118.509 23.8516 118.139 24.2351 117.869 24.7393C117.607 25.2365 117.472 25.8366 117.465 26.5398ZM131.732 36V14.1818H140.468C142.073 14.1818 143.412 14.4197 144.484 14.8956C145.557 15.3714 146.363 16.032 146.903 16.8771C147.442 17.7152 147.712 18.6811 147.712 19.7749C147.712 20.6271 147.542 21.3764 147.201 22.0227C146.86 22.6619 146.391 23.1875 145.795 23.5994C145.205 24.0043 144.531 24.2919 143.771 24.4624V24.6754C144.602 24.7109 145.379 24.9453 146.104 25.3786C146.835 25.8118 147.428 26.419 147.883 27.2003C148.337 27.9744 148.565 28.8977 148.565 29.9702C148.565 31.1278 148.277 32.1612 147.702 33.0703C147.134 33.9723 146.292 34.6861 145.177 35.2116C144.062 35.7372 142.688 36 141.054 36H131.732ZM136.345 32.2287H140.106C141.391 32.2287 142.329 31.9837 142.918 31.4936C143.508 30.9964 143.803 30.3359 143.803 29.5121C143.803 28.9084 143.657 28.3757 143.366 27.9141C143.075 27.4524 142.659 27.0902 142.119 26.8274C141.587 26.5646 140.951 26.4332 140.212 26.4332H136.345V32.2287ZM136.345 23.3118H139.765C140.397 23.3118 140.958 23.2017 141.448 22.9815C141.945 22.7543 142.336 22.4347 142.62 22.0227C142.911 21.6108 143.057 21.1172 143.057 20.5419C143.057 19.7536 142.776 19.1179 142.215 18.6349C141.661 18.152 140.873 17.9105 139.85 17.9105H136.345V23.3118ZM161.975 29.0327V19.6364H166.513V36H162.156V33.0277H161.985C161.616 33.9865 161.002 34.7571 160.142 35.3395C159.29 35.9219 158.249 36.2131 157.021 36.2131C155.927 36.2131 154.965 35.9645 154.134 35.4673C153.303 34.9702 152.653 34.2635 152.184 33.3473C151.722 32.4311 151.488 31.3338 151.481 30.0554V19.6364H156.019V29.2457C156.026 30.2116 156.286 30.9751 156.797 31.5362C157.308 32.0973 157.994 32.3778 158.853 32.3778C159.4 32.3778 159.911 32.2536 160.387 32.005C160.863 31.7493 161.247 31.3729 161.538 30.8757C161.836 30.3786 161.982 29.7642 161.975 29.0327ZM170.143 36V19.6364H174.543V22.4915H174.713C175.012 21.4759 175.512 20.7088 176.216 20.1903C176.919 19.6648 177.728 19.402 178.645 19.402C178.872 19.402 179.117 19.4162 179.38 19.4446C179.642 19.473 179.873 19.5121 180.072 19.5618V23.5888C179.859 23.5249 179.564 23.468 179.188 23.4183C178.811 23.3686 178.467 23.3438 178.154 23.3438C177.487 23.3438 176.89 23.4893 176.365 23.7805C175.846 24.0646 175.434 24.4624 175.129 24.9737C174.831 25.4851 174.681 26.0746 174.681 26.7422V36H170.143ZM196.034 24.3026L191.879 24.5582C191.808 24.2031 191.655 23.8835 191.421 23.5994C191.186 23.3082 190.877 23.0774 190.494 22.907C190.117 22.7294 189.666 22.6406 189.141 22.6406C188.438 22.6406 187.845 22.7898 187.362 23.0881C186.879 23.3793 186.637 23.7699 186.637 24.2599C186.637 24.6506 186.794 24.9808 187.106 25.2507C187.419 25.5206 187.955 25.7372 188.715 25.9006L191.676 26.4972C193.267 26.8239 194.453 27.3494 195.235 28.0739C196.016 28.7983 196.406 29.75 196.406 30.929C196.406 32.0014 196.09 32.9425 195.458 33.7521C194.833 34.5618 193.974 35.1939 192.88 35.6484C191.794 36.0959 190.54 36.3196 189.119 36.3196C186.953 36.3196 185.227 35.8686 183.942 34.9666C182.664 34.0575 181.914 32.8217 181.694 31.2592L186.158 31.0249C186.293 31.6854 186.619 32.1896 187.138 32.5376C187.656 32.8786 188.32 33.049 189.13 33.049C189.926 33.049 190.565 32.8963 191.048 32.5909C191.538 32.2784 191.786 31.8771 191.794 31.3871C191.786 30.9751 191.612 30.6378 191.271 30.375C190.931 30.1051 190.405 29.8991 189.695 29.7571L186.861 29.1925C185.263 28.8729 184.073 28.3189 183.292 27.5305C182.518 26.7422 182.131 25.7372 182.131 24.5156C182.131 23.4645 182.415 22.5589 182.983 21.799C183.558 21.0391 184.365 20.4531 185.401 20.0412C186.445 19.6293 187.667 19.4233 189.066 19.4233C191.133 19.4233 192.759 19.8601 193.945 20.7337C195.139 21.6072 195.835 22.7969 196.034 24.3026ZM207.968 19.6364V23.0455H198.114V19.6364H207.968ZM200.351 15.7159H204.889V30.9716C204.889 31.3906 204.953 31.7173 205.081 31.9517C205.209 32.179 205.386 32.3388 205.614 32.4311C205.848 32.5234 206.118 32.5696 206.423 32.5696C206.636 32.5696 206.849 32.5518 207.062 32.5163C207.276 32.4737 207.439 32.4418 207.553 32.4205L208.266 35.7976C208.039 35.8686 207.719 35.9503 207.308 36.0426C206.896 36.142 206.395 36.2024 205.805 36.2237C204.712 36.2663 203.753 36.1207 202.929 35.7869C202.112 35.4531 201.477 34.9347 201.022 34.2315C200.567 33.5284 200.344 32.6406 200.351 31.5682V15.7159Z" fill="#FC4F00"/>
<defs>
<clipPath id="clip0_6_91">
<rect width="51" height="51" fill="white"/>
</clipPath>
</defs>
</svg>
